<?xml version="1.0" encoding="UTF-8"?>
<svg width="120" height="120" viewBox="0 0 120 120" fill="none" xmlns="http://www.w3.org/2000/svg">
  <!-- Outer Ring -->
  <path fill-rule="evenodd" clip-rule="evenodd" d="M60 15C35.1472 15 15 35.1472 15 60C15 84.8528 35.1472 105 60 105C84.8528 105 105 84.8528 105 60C105 35.1472 84.8528 15 60 15ZM7.5 60C7.5 31.0051 31.0051 7.5 60 7.5C88.9949 7.5 112.5 31.0051 112.5 60C112.5 88.9949 88.9949 112.5 60 112.5C31.0051 112.5 7.5 88.9949 7.5 60Z" fill="currentColor"/>
  
  <!-- Middle Ring -->
  <path fill-rule="evenodd" clip-rule="evenodd" d="M60 30C41.7746 30 27 44.7746 27 63C27 81.2254 41.7746 96 60 96C78.2254 96 93 81.2254 93 63C93 44.7746 78.2254 30 60 30ZM19.5 63C19.5 40.6802 37.6802 22.5 60 22.5C82.3198 22.5 100.5 40.6802 100.5 63C100.5 85.3198 82.3198 103.5 60 103.5C37.6802 103.5 19.5 85.3198 19.5 63Z" fill="currentColor" fill-opacity="0.6"/>
  
  <!-- Inner Ring -->
  <path fill-rule="evenodd" clip-rule="evenodd" d="M60 45C49.5066 45 41 53.5066 41 64C41 74.4934 49.5066 83 60 83C70.4934 83 79 74.4934 79 64C79 53.5066 70.4934 45 60 45ZM33.5 64C33.5 49.3645 45.3645 37.5 60 37.5C74.6355 37.5 86.5 49.3645 86.5 64C86.5 78.6355 74.6355 90.5 60 90.5C45.3645 90.5 33.5 78.6355 33.5 64Z" fill="currentColor" fill-opacity="0.3"/>
  
  <!-- Center Circle -->
  <circle cx="60" cy="60" r="15" fill="currentColor" fill-opacity="0.1"/>
</svg> 